<svg width="20" height="21" viewBox="0 0 20 21" fill="none" xmlns="http://www.w3.org/2000/svg">
<g id="add">
<path id="Vector" d="M15 11.3334H10.8334V15.5001C10.8334 15.9584 10.4584 16.3334 10 16.3334C9.54169 16.3334 9.16669 15.9584 9.16669 15.5001V11.3334H5.00002C4.54169 11.3334 4.16669 10.9584 4.16669 10.5001C4.16669 10.0417 4.54169 9.66675 5.00002 9.66675H9.16669V5.50008C9.16669 5.04175 9.54169 4.66675 10 4.66675C10.4584 4.66675 10.8334 5.04175 10.8334 5.50008V9.66675H15C15.4584 9.66675 15.8334 10.0417 15.8334 10.5001C15.8334 10.9584 15.4584 11.3334 15 11.3334Z" fill="#004EA0"/>
</g>
</svg>
