<svg width="20" height="20" viewBox="0 0 20 20" fill="none" xmlns="http://www.w3.org/2000/svg">
<path d="M4.04761 1.66675C3.41614 1.66675 2.81054 1.9176 2.36402 2.36411C1.91751 2.81063 1.66666 3.41623 1.66666 4.0477V5.23818C1.66666 5.94889 1.97856 6.58818 2.47261 7.02389C2.21929 7.24734 2.01641 7.52213 1.87745 7.83001C1.73849 8.13789 1.66664 8.47182 1.66666 8.80961V11.1906C1.66666 11.9013 1.97856 12.5394 2.47261 12.9763C2.21929 13.1997 2.01641 13.4745 1.87745 13.7824C1.73849 14.0903 1.66664 14.4242 1.66666 14.762V15.9525C1.66666 16.5839 1.91751 17.1895 2.36402 17.636C2.81054 18.0826 3.41614 18.3334 4.04761 18.3334H15.9524C16.5838 18.3334 17.1894 18.0826 17.636 17.636C18.0825 17.1895 18.3333 16.5839 18.3333 15.9525V14.762C18.3333 14.0513 18.0214 13.4132 17.5274 12.9763C18.0214 12.5394 18.3333 11.9013 18.3333 11.1906V8.80961C18.3333 8.09889 18.0214 7.45961 17.5274 7.02389C18.0214 6.58818 18.3333 5.94889 18.3333 5.23818V4.0477C18.3333 3.41623 18.0825 2.81063 17.636 2.36411C17.1894 1.9176 16.5838 1.66675 15.9524 1.66675H4.04761ZM2.85713 14.762C2.85713 14.4463 2.98256 14.1434 3.20582 13.9202C3.42907 13.6969 3.73187 13.5715 4.04761 13.5715H6.42856V17.1429H4.04761C3.73187 17.1429 3.42907 17.0175 3.20582 16.7943C2.98256 16.571 2.85713 16.2682 2.85713 15.9525V14.762ZM7.61904 17.1429V13.5715H15.9524C16.2681 13.5715 16.5709 13.6969 16.7942 13.9202C17.0174 14.1434 17.1428 14.4463 17.1428 14.762V15.9525C17.1428 16.2682 17.0174 16.571 16.7942 16.7943C16.5709 17.0175 16.2681 17.1429 15.9524 17.1429H7.61904ZM7.61904 12.381V7.61913H15.9524C16.2681 7.61913 16.5709 7.74455 16.7942 7.96781C17.0174 8.19107 17.1428 8.49387 17.1428 8.80961V11.1906C17.1428 11.5063 17.0174 11.8091 16.7942 12.0324C16.5709 12.2556 16.2681 12.381 15.9524 12.381H7.61904ZM6.42856 7.61913V12.381H4.04761C3.73187 12.381 3.42907 12.2556 3.20582 12.0324C2.98256 11.8091 2.85713 11.5063 2.85713 11.1906V8.80961C2.85713 8.49387 2.98256 8.19107 3.20582 7.96781C3.42907 7.74455 3.73187 7.61913 4.04761 7.61913H6.42856ZM6.42856 6.42865H4.04761C3.73187 6.42865 3.42907 6.30323 3.20582 6.07997C2.98256 5.85671 2.85713 5.55391 2.85713 5.23818V4.0477C2.85713 3.73197 2.98256 3.42916 3.20582 3.20591C3.42907 2.98265 3.73187 2.85722 4.04761 2.85722H6.42856V6.42865ZM7.61904 6.42865V2.85722H15.9524C16.2681 2.85722 16.5709 2.98265 16.7942 3.20591C17.0174 3.42916 17.1428 3.73197 17.1428 4.0477V5.23818C17.1428 5.55391 17.0174 5.85671 16.7942 6.07997C16.5709 6.30323 16.2681 6.42865 15.9524 6.42865H7.61904Z" fill="url(#paint0_linear_7812_2767)"/>
<defs>
<linearGradient id="paint0_linear_7812_2767" x1="1.27513" y1="14.4892" x2="19.0998" y2="11.9599" gradientUnits="userSpaceOnUse">
<stop stop-color="#002572"/>
<stop offset="1" stop-color="#007BFF"/>
</linearGradient>
</defs>
</svg>
