<svg width="26" height="26" viewBox="0 0 26 26" fill="none" xmlns="http://www.w3.org/2000/svg">
<path d="M6.595 19C6.595 19.4142 6.93079 19.75 7.345 19.75C7.75921 19.75 8.095 19.4142 8.095 19V13.75C8.095 13.3358 7.75921 13 7.345 13C6.93079 13 6.595 13.3358 6.595 13.75V19ZM17.905 19C17.905 19.4142 18.2408 19.75 18.655 19.75C19.0692 19.75 19.405 19.4142 19.405 19V6.25C19.405 5.83579 19.0692 5.5 18.655 5.5C18.2408 5.5 17.905 5.83579 17.905 6.25V19ZM12.25 19C12.25 19.4142 12.5858 19.75 13 19.75C13.4142 19.75 13.75 19.4142 13.75 19V16.75C13.75 16.3358 13.4142 16 13 16C12.5858 16 12.25 16.3358 12.25 16.75V19ZM12.25 12.25C12.25 12.6642 12.5858 13 13 13C13.4142 13 13.75 12.6642 13.75 12.25V10.75C13.75 10.3358 13.4142 10 13 10C12.5858 10 12.25 10.3358 12.25 10.75V12.25ZM3.424 25C2.733 25 2.1565 24.769 1.6945 24.307C1.2325 23.845 1.001 23.268 1 22.576V3.424C1 2.733 1.2315 2.1565 1.6945 1.6945C2.1575 1.2325 2.734 1.001 3.424 1H22.5775C23.2675 1 23.844 1.2315 24.307 1.6945C24.77 2.1575 25.001 2.734 25 3.424V22.5775C25 23.2675 24.769 23.844 24.307 24.307C23.845 24.77 23.268 25.001 22.576 25H3.424ZM3.424 23.5H22.5775C22.8075 23.5 23.019 23.404 23.212 23.212C23.405 23.02 23.501 22.808 23.5 22.576V3.424C23.5 3.193 23.404 2.981 23.212 2.788C23.02 2.595 22.808 2.499 22.576 2.5H3.424C3.193 2.5 2.981 2.596 2.788 2.788C2.595 2.98 2.499 3.192 2.5 3.424V22.5775C2.5 22.8075 2.596 23.019 2.788 23.212C2.98 23.405 3.1915 23.501 3.4225 23.5" fill="url(#paint0_linear_8299_435)"/>
<path d="M3.424 23.5H22.5775C22.8075 23.5 23.019 23.404 23.212 23.212C23.405 23.02 23.501 22.808 23.5 22.576V3.424C23.5 3.193 23.404 2.981 23.212 2.788C23.02 2.595 22.808 2.499 22.576 2.5H3.424C3.193 2.5 2.981 2.596 2.788 2.788C2.595 2.98 2.499 3.192 2.5 3.424V22.5775C2.5 22.8075 2.596 23.019 2.788 23.212C2.98 23.405 3.1915 23.501 3.4225 23.5M2.5 2.5V23.5M3.424 25C2.733 25 2.1565 24.769 1.6945 24.307C1.2325 23.845 1.001 23.268 1 22.576V3.424C1 2.733 1.2315 2.1565 1.6945 1.6945C2.1575 1.2325 2.734 1.001 3.424 1H22.5775C23.2675 1 23.844 1.2315 24.307 1.6945C24.77 2.1575 25.001 2.734 25 3.424V22.5775C25 23.2675 24.769 23.844 24.307 24.307C23.845 24.77 23.268 25.001 22.576 25H3.424ZM13 10V10C13.4142 10 13.75 10.3358 13.75 10.75V12.25C13.75 12.6642 13.4142 13 13 13V13C12.5858 13 12.25 12.6642 12.25 12.25V10.75C12.25 10.3358 12.5858 10 13 10ZM13 16V16C13.4142 16 13.75 16.3358 13.75 16.75V19C13.75 19.4142 13.4142 19.75 13 19.75V19.75C12.5858 19.75 12.25 19.4142 12.25 19V16.75C12.25 16.3358 12.5858 16 13 16ZM18.655 5.5V5.5C19.0692 5.5 19.405 5.83579 19.405 6.25V19C19.405 19.4142 19.0692 19.75 18.655 19.75V19.75C18.2408 19.75 17.905 19.4142 17.905 19V6.25C17.905 5.83579 18.2408 5.5 18.655 5.5ZM7.345 13V13C7.75921 13 8.095 13.3358 8.095 13.75V19C8.095 19.4142 7.75921 19.75 7.345 19.75V19.75C6.93079 19.75 6.595 19.4142 6.595 19V13.75C6.595 13.3358 6.93079 13 7.345 13Z" stroke="url(#paint1_linear_8299_435)" stroke-width="0.3"/>
<defs>
<linearGradient id="paint0_linear_8299_435" x1="0.436205" y1="19.4643" x2="26.1038" y2="15.8221" gradientUnits="userSpaceOnUse">
<stop stop-color="#002572"/>
<stop offset="1" stop-color="#007BFF"/>
</linearGradient>
<linearGradient id="paint1_linear_8299_435" x1="0.436205" y1="19.4643" x2="26.1038" y2="15.8221" gradientUnits="userSpaceOnUse">
<stop stop-color="#002572"/>
<stop offset="1" stop-color="#007BFF"/>
</linearGradient>
</defs>
</svg>
