<svg width="24" height="25" viewBox="0 0 24 25" fill="none" xmlns="http://www.w3.org/2000/svg">
<path d="M5.71429 1V8.93103M18.2857 1V8.93103M4.92857 12.8966H9.64286M19.0714 12.8966H14.3571M4.92857 17.6552H9.64286M14.3571 17.6552H19.0714M2.57143 4.96552H21.4286C21.8453 4.96552 22.245 5.13263 22.5397 5.43011C22.8344 5.72758 23 6.13104 23 6.55172V22.4138C23 22.8345 22.8344 23.2379 22.5397 23.5354C22.245 23.8329 21.8453 24 21.4286 24H2.57143C2.15466 24 1.75496 23.8329 1.46026 23.5354C1.16556 23.2379 1 22.8345 1 22.4138V6.55172C1 6.13104 1.16556 5.72758 1.46026 5.43011C1.75496 5.13263 2.15466 4.96552 2.57143 4.96552Z" stroke="url(#paint0_linear_8299_405)" stroke-width="2" stroke-linecap="round" stroke-linejoin="round"/>
<defs>
<linearGradient id="paint0_linear_8299_405" x1="0.483188" y1="18.6949" x2="24.0514" y2="15.4961" gradientUnits="userSpaceOnUse">
<stop stop-color="#002572"/>
<stop offset="1" stop-color="#007BFF"/>
</linearGradient>
</defs>
</svg>
