<svg width="32" height="32" viewBox="0 0 32 32" fill="none" xmlns="http://www.w3.org/2000/svg">
<path d="M27 15.9999C27.0018 17.4441 26.7187 18.8745 26.1667 20.2091C25.6147 21.5437 24.8047 22.7562 23.7833 23.7771C22.7613 24.7993 21.5479 25.6101 20.2124 26.1631C18.8769 26.716 17.4455 27.0004 16.0001 26.9998C14.4444 27.0033 12.9059 26.6749 11.4871 26.0366L6.88859 26.7168C6.66027 26.7541 6.4263 26.7351 6.207 26.6614C5.9877 26.5877 5.7897 26.4616 5.63021 26.294C5.47071 26.1264 5.35455 25.9224 5.29179 25.6998C5.22904 25.4771 5.2216 25.2425 5.27012 25.0163L5.90871 20.3511C5.30127 18.9814 4.99159 17.4983 5.00017 15.9999C4.99833 14.5557 5.28151 13.1253 5.8335 11.7907C6.38549 10.4562 7.19543 9.24364 8.2169 8.22268C9.23887 7.20048 10.4523 6.38972 11.7878 5.83675C13.1233 5.28379 14.5546 4.99945 16.0001 5C18.9191 5.0002 21.7185 6.15934 23.7833 8.22268C24.8042 9.24404 25.6138 10.4566 26.1658 11.7911C26.7177 13.1256 27.0012 14.5558 27 15.9999Z" stroke="url(#paint0_linear_8299_418)" stroke-width="2" stroke-linecap="round" stroke-linejoin="round"/>
<path d="M16.0015 16.7254C16.1941 16.7254 16.3787 16.6489 16.5149 16.5128C16.651 16.3766 16.7275 16.192 16.7275 15.9994C16.7275 15.8069 16.651 15.6222 16.5149 15.4861C16.3787 15.3499 16.1941 15.2734 16.0015 15.2734C15.809 15.2734 15.6243 15.3499 15.4882 15.4861C15.352 15.6222 15.2755 15.8069 15.2755 15.9994C15.2755 16.192 15.352 16.3766 15.4882 16.5128C15.6243 16.6489 15.809 16.7254 16.0015 16.7254ZM21.09 16.7254C21.2826 16.7254 21.4672 16.6489 21.6034 16.5128C21.7395 16.3766 21.816 16.192 21.816 15.9994C21.816 15.8069 21.7395 15.6222 21.6034 15.4861C21.4672 15.3499 21.2826 15.2734 21.09 15.2734C20.8975 15.2734 20.7128 15.3499 20.5767 15.4861C20.4405 15.6222 20.364 15.8069 20.364 15.9994C20.364 16.192 20.4405 16.3766 20.5767 16.5128C20.7128 16.6489 20.8975 16.7254 21.09 16.7254ZM10.913 16.7254C11.0084 16.7255 11.1028 16.7068 11.1909 16.6704C11.279 16.634 11.3591 16.5806 11.4266 16.5132C11.494 16.4458 11.5476 16.3659 11.5841 16.2778C11.6207 16.1898 11.6395 16.0954 11.6396 16C11.6397 15.9047 11.621 15.8103 11.5846 15.7222C11.5482 15.634 11.4948 15.554 11.4274 15.4865C11.36 15.419 11.2801 15.3655 11.192 15.3289C11.104 15.2924 11.0096 15.2735 10.9142 15.2734C10.7217 15.2734 10.537 15.3499 10.4009 15.4861C10.2647 15.6222 10.1882 15.8069 10.1882 15.9994C10.1882 16.192 10.2647 16.3766 10.4009 16.5128C10.537 16.6489 10.7205 16.7254 10.913 16.7254Z" stroke="url(#paint1_linear_8299_418)" stroke-width="2" stroke-linecap="round" stroke-linejoin="round"/>
<defs>
<linearGradient id="paint0_linear_8299_418" x1="4.48319" y1="21.9255" x2="28.0118" y2="18.5868" gradientUnits="userSpaceOnUse">
<stop stop-color="#002572"/>
<stop offset="1" stop-color="#007BFF"/>
</linearGradient>
<linearGradient id="paint1_linear_8299_418" x1="9.91508" y1="16.3905" x2="15.4518" y2="10.0989" gradientUnits="userSpaceOnUse">
<stop stop-color="#002572"/>
<stop offset="1" stop-color="#007BFF"/>
</linearGradient>
</defs>
</svg>
