<svg width="28" height="29" viewBox="0 0 28 29" fill="none" xmlns="http://www.w3.org/2000/svg">
<path d="M24.5712 14.4997C24.573 15.8876 24.3009 17.2623 23.7704 18.5449C23.2399 19.8275 22.4615 20.9927 21.4798 21.9739C20.4977 22.9563 19.3315 23.7355 18.048 24.2669C16.7646 24.7983 15.389 25.0716 13.9998 25.0711C12.5047 25.0744 11.0261 24.7588 9.66268 24.1454L5.24325 24.7991C5.02382 24.8349 4.79896 24.8166 4.5882 24.7458C4.37745 24.675 4.18716 24.5538 4.03388 24.3928C3.8806 24.2317 3.76896 24.0357 3.70865 23.8217C3.64834 23.6077 3.64119 23.3822 3.68782 23.1648L4.30153 18.6814C3.71775 17.365 3.42014 15.9396 3.42839 14.4997C3.42661 13.1117 3.69877 11.737 4.22926 10.4544C4.75975 9.17185 5.53814 8.00656 6.51982 7.02537C7.50198 6.04299 8.66812 5.26381 9.95159 4.73238C11.2351 4.20095 12.6107 3.92769 13.9998 3.92822C16.8051 3.92841 19.4955 5.0424 21.4798 7.02537C22.461 8.00694 23.2391 9.1723 23.7695 10.4548C24.3 11.7373 24.5724 13.1118 24.5712 14.4997Z" stroke="#3B95F6" stroke-width="1.71429" stroke-linecap="round" stroke-linejoin="round"/>
<path d="M14.0009 15.1967C14.186 15.1967 14.3634 15.1232 14.4943 14.9923C14.6251 14.8615 14.6986 14.684 14.6986 14.499C14.6986 14.3139 14.6251 14.1365 14.4943 14.0056C14.3634 13.8748 14.186 13.8013 14.0009 13.8013C13.8159 13.8013 13.6384 13.8748 13.5076 14.0056C13.3767 14.1365 13.3032 14.3139 13.3032 14.499C13.3032 14.684 13.3767 14.8615 13.5076 14.9923C13.6384 15.1232 13.8159 15.1967 14.0009 15.1967ZM18.8912 15.1967C19.0763 15.1967 19.2537 15.1232 19.3846 14.9923C19.5154 14.8615 19.5889 14.684 19.5889 14.499C19.5889 14.3139 19.5154 14.1365 19.3846 14.0056C19.2537 13.8748 19.0763 13.8013 18.8912 13.8013C18.7062 13.8013 18.5287 13.8748 18.3978 14.0056C18.267 14.1365 18.1935 14.3139 18.1935 14.499C18.1935 14.684 18.267 14.8615 18.3978 14.9923C18.5287 15.1232 18.7062 15.1967 18.8912 15.1967ZM9.11063 15.1967C9.20226 15.1968 9.293 15.1788 9.37768 15.1438C9.46236 15.1088 9.53932 15.0575 9.60416 14.9927C9.669 14.928 9.72046 14.8511 9.75559 14.7665C9.79072 14.6819 9.80884 14.5912 9.80892 14.4996C9.80899 14.4079 9.79102 14.3172 9.75603 14.2325C9.72103 14.1478 9.6697 14.0709 9.60497 14.006C9.54023 13.9412 9.46336 13.8897 9.37874 13.8546C9.29412 13.8195 9.2034 13.8013 9.11178 13.8013C8.92673 13.8013 8.74927 13.8748 8.61842 14.0056C8.48757 14.1365 8.41406 14.3139 8.41406 14.499C8.41406 14.684 8.48757 14.8615 8.61842 14.9923C8.74927 15.1232 8.92559 15.1967 9.11063 15.1967Z" stroke="#3B95F6" stroke-width="1.71429" stroke-linecap="round" stroke-linejoin="round"/>
</svg>
