<svg width="24" height="24" viewBox="0 0 24 24" fill="none" xmlns="http://www.w3.org/2000/svg">
<path d="M2.57129 9.32129H6.18848C6.09535 9.88777 6.08238 10.4656 6.15625 11.0371L6.21973 11.4277C6.33247 11.9971 6.53088 12.5427 6.80078 13.0508C6.21615 13.1585 5.65304 13.3658 5.13965 13.6709L4.81348 13.8828C4.19136 14.3209 3.68019 14.8922 3.31348 15.5508C3.10415 15.4342 2.90094 15.3068 2.70801 15.1641L2.5459 15.0391C1.43678 14.1457 0.75 12.8297 0.75 11.1426C0.750065 10.72 0.896627 10.3123 1.16211 9.98828L1.2832 9.85449C1.62475 9.51298 2.0883 9.32133 2.57129 9.32129ZM21.4287 9.32129C21.8515 9.32132 22.2589 9.46869 22.583 9.73438L22.7168 9.85449C23.0583 10.196 23.2499 10.6596 23.25 11.1426C23.25 12.7254 22.6459 13.9821 21.6553 14.8691L21.4521 15.041C21.2143 15.231 20.9563 15.3986 20.6836 15.5498C19.9651 14.2632 18.7009 13.3244 17.2021 13.0488C17.6509 12.204 17.8925 11.257 17.8926 10.2861L17.8877 10.0293C17.8774 9.78954 17.8516 9.55331 17.8135 9.32129H21.4287ZM12.3867 7.51367C12.7442 7.55727 13.0894 7.67252 13.4014 7.85254C13.7133 8.03254 13.9855 8.27384 14.2021 8.56152C14.3646 8.77732 14.4933 9.0162 14.584 9.26953L14.6621 9.52734C14.7489 9.87696 14.764 10.241 14.707 10.5967C14.6643 10.8633 14.5814 11.1213 14.4619 11.3623L14.3311 11.5977C13.9624 12.1843 13.3805 12.6055 12.708 12.7725C12.1195 12.9185 11.5015 12.8593 10.9541 12.6104L10.7236 12.4922C10.1985 12.189 9.79377 11.7183 9.57227 11.1592L9.48926 10.915C9.32129 10.3326 9.3559 9.71249 9.58398 9.15625L9.69434 8.92188C9.86248 8.60348 10.0928 8.32197 10.3721 8.09473C10.6515 7.86745 10.9742 7.69844 11.3203 7.59863C11.5799 7.52377 11.849 7.48856 12.1182 7.49414L12.3867 7.51367ZM6.85742 0.75C7.47888 0.750065 8.07813 0.966012 8.55469 1.35645L8.75098 1.53418C9.25331 2.03651 9.53613 2.71831 9.53613 3.42871C9.5361 4.05031 9.31927 4.64936 8.92871 5.12598L8.75098 5.32227C8.24871 5.82453 7.56772 6.10735 6.85742 6.10742C6.23581 6.10742 5.63582 5.89153 5.15918 5.50098L4.96289 5.32227C4.46077 4.82 4.17875 4.13893 4.17871 3.42871C4.17871 2.80723 4.39476 2.20804 4.78516 1.73145L4.96289 1.53418C5.40252 1.09458 5.97947 0.823495 6.59277 0.762695L6.85742 0.75ZM16.8135 0.789062C17.5148 0.696651 18.2245 0.884799 18.7871 1.31348C19.2793 1.68851 19.624 2.22096 19.7676 2.81738L19.8164 3.07715C19.9013 3.69005 19.7715 4.31066 19.4531 4.83496L19.3047 5.05371C18.9329 5.54845 18.4032 5.8974 17.8076 6.04492L17.5488 6.0957C16.9364 6.18464 16.3145 6.05815 15.7881 5.74316L15.5684 5.59668L15.5068 5.5498C15.0223 5.16853 14.686 4.63338 14.5508 4.03711L14.5059 3.77734C14.429 3.16315 14.567 2.54362 14.8926 2.02344L15.0439 1.80664C15.4223 1.31709 15.9564 0.975519 16.5537 0.835938L16.8135 0.789062ZM5.89258 17.998C5.8921 17.8188 5.91822 17.6407 5.96973 17.4697L6.03027 17.3008C6.09869 17.135 6.1914 16.9809 6.30469 16.8428L6.4248 16.71C6.55161 16.5832 6.69588 16.4756 6.85352 16.3916L7.01562 16.3154C7.18117 16.2472 7.35562 16.2036 7.5332 16.1865L7.71191 16.1787H16.2861C16.6017 16.1787 16.9113 16.2602 17.1846 16.415L17.2988 16.4863C17.5612 16.6619 17.7731 16.9019 17.9141 17.1826L17.9697 17.3057L17.9707 17.3066C18.0583 17.5178 18.1074 17.7529 18.1074 18C18.1074 19.5832 17.5039 20.8389 16.5127 21.7256L16.3096 21.8984C15.2015 22.788 13.6755 23.25 12 23.25C10.4288 23.25 8.98925 22.8437 7.90234 22.0596L7.69043 21.8984C6.58007 21.005 5.89258 19.6881 5.89258 18V17.998Z" stroke="url(#paint0_linear_8299_428)" stroke-width="1.5"/>
<defs>
<linearGradient id="paint0_linear_8299_428" x1="-0.563795" y1="18.4643" x2="25.1038" y2="14.8221" gradientUnits="userSpaceOnUse">
<stop stop-color="#002572"/>
<stop offset="1" stop-color="#007BFF"/>
</linearGradient>
</defs>
</svg>
