<svg width="18" height="22" viewBox="0 0 18 22" fill="none" xmlns="http://www.w3.org/2000/svg">
<path d="M16.03 7.2025L17.45 5.7825C17 5.2725 16.55 4.8125 16.04 4.3725L14.62 5.8125C13.07 4.5525 11.12 3.8125 9 3.8125C6.61305 3.8125 4.32387 4.76071 2.63604 6.44854C0.948212 8.13637 0 10.4256 0 12.8125C0 15.1994 0.948212 17.4886 2.63604 19.1765C4.32387 20.8643 6.61305 21.8125 9 21.8125C14 21.8125 18 17.7825 18 12.8125C18 10.6925 17.26 8.7425 16.03 7.2025ZM10 13.8125H8V6.8125H10V13.8125ZM12 0.8125H6V2.8125H12V0.8125Z" fill="#FFA726"/>
</svg>
