<svg width="29" height="29" viewBox="0 0 29 29" fill="none" xmlns="http://www.w3.org/2000/svg">
<path d="M20.3327 18.7402C19.5852 18.7402 18.9498 18.4785 18.4263 17.955C17.9021 17.4316 17.64 16.7957 17.64 16.0475C17.64 15.2993 17.9021 14.6635 18.4263 14.14C18.9506 13.6166 19.586 13.3552 20.3327 13.356C21.0793 13.3568 21.7152 13.6185 22.2402 14.1412C22.7636 14.6654 23.0253 15.3012 23.0253 16.0487C23.0253 16.7961 22.7632 17.432 22.239 17.9562C21.7148 18.4804 21.0793 18.741 20.3327 18.7402ZM20.3327 17.5747C20.7527 17.5747 21.112 17.4253 21.4107 17.1267C21.7093 16.828 21.8587 16.4687 21.8587 16.0487C21.8587 15.6287 21.7093 15.2693 21.4107 14.9707C21.112 14.672 20.7527 14.5227 20.3327 14.5227C19.9127 14.5227 19.5533 14.672 19.2547 14.9707C18.956 15.2693 18.8067 15.6287 18.8067 16.0487C18.8067 16.4687 18.956 16.828 19.2547 17.1267C19.5533 17.4253 19.9127 17.5747 20.3327 17.5747ZM15.0827 25.6282C14.8159 25.6282 14.5923 25.538 14.4118 25.3575C14.2314 25.1771 14.1408 24.9535 14.14 24.6867V23.0533C14.14 22.7858 14.2038 22.5342 14.3313 22.2985C14.4589 22.0636 14.6378 21.8762 14.868 21.7362C15.4 21.4111 15.8612 21.1832 16.2517 21.0525C16.6421 20.9218 17.1461 20.8036 17.7637 20.6978C17.9643 20.6628 18.1588 20.6671 18.347 20.7107C18.536 20.7535 18.6931 20.853 18.8183 21.0093L20.3327 22.9577L21.8179 21.0082C21.9438 20.8433 22.101 20.7414 22.2892 20.7025C22.4774 20.6636 22.6738 20.6617 22.8783 20.6967C23.5076 20.8025 24.012 20.9199 24.3915 21.049C24.7718 21.1789 25.2385 21.4076 25.7915 21.735C26.0217 21.8742 26.1979 22.0601 26.32 22.2927C26.4421 22.5252 26.5106 22.7706 26.5253 23.0288V24.6855C26.5253 24.9523 26.4347 25.1759 26.2535 25.3563C26.0723 25.5368 25.8487 25.627 25.5827 25.627L15.0827 25.6282ZM15.2775 24.4615H20.0095L17.9632 21.7735C17.4887 21.8855 17.0275 22.0306 16.5795 22.2087C16.1323 22.3876 15.6983 22.5945 15.2775 22.8293V24.4615ZM20.6558 24.4615H25.3575V22.8282C24.9422 22.5894 24.5105 22.3856 24.0625 22.2168C23.6145 22.0488 23.1537 21.9088 22.68 21.7968L20.6558 24.4615ZM6.33268 22.666V6.33268V10.598V10.1243V22.666ZM7.06185 23.8327C6.53296 23.8327 6.08457 23.648 5.71668 23.2785C5.34957 22.9106 5.16602 22.4677 5.16602 21.9497V7.05018C5.16602 6.53218 5.35074 6.08885 5.72018 5.72018C6.08963 5.35152 6.53296 5.16679 7.05018 5.16602H21.9485C22.4665 5.16602 22.9098 5.35074 23.2785 5.72018C23.6472 6.08963 23.8319 6.53296 23.8327 7.05018V11.3587C23.6561 11.1938 23.4768 11.0448 23.2948 10.9118C23.1128 10.7788 22.9032 10.6766 22.666 10.605V7.05135C22.666 6.84135 22.5987 6.66907 22.4642 6.53452C22.3296 6.39996 22.1577 6.33268 21.9485 6.33268H7.05018C6.84096 6.33268 6.66907 6.39996 6.53452 6.53452C6.39996 6.66907 6.33268 6.84135 6.33268 7.05135V21.9485C6.33268 22.1577 6.39996 22.3296 6.53452 22.4642C6.66907 22.5987 6.84135 22.666 7.05135 22.666H10.9503C10.9371 22.7306 10.927 22.7951 10.92 22.8597C10.913 22.9235 10.9095 22.9876 10.9095 23.0522V23.8327H7.06185ZM9.83268 10.6843H17.9095C18.1911 10.521 18.4874 10.4016 18.7985 10.3262C19.1096 10.2515 19.4266 10.1994 19.7493 10.1698V10.101C19.7493 9.93535 19.6933 9.7969 19.5813 9.68568C19.4693 9.57446 19.3309 9.51846 19.166 9.51768H9.83268C9.66702 9.51768 9.52857 9.57368 9.41735 9.68568C9.30613 9.79768 9.25013 9.93652 9.24935 10.1022C9.24857 10.2678 9.30457 10.4063 9.41735 10.5175C9.53013 10.6287 9.66857 10.6843 9.83268 10.6843ZM9.83268 15.0827H14.5227C14.5522 14.8688 14.5919 14.6681 14.6417 14.4807C14.6922 14.294 14.7506 14.1058 14.8167 13.916H9.83268C9.66702 13.916 9.52857 13.972 9.41735 14.084C9.30613 14.196 9.25013 14.3348 9.24935 14.5005C9.24857 14.6662 9.30457 14.8046 9.41735 14.9158C9.53013 15.0271 9.66857 15.0827 9.83268 15.0827ZM9.83268 19.481H12.5102C12.7101 19.32 12.9166 19.168 13.1297 19.0248C13.3428 18.8817 13.5606 18.7592 13.783 18.6573V18.5827C13.783 18.5111 13.7643 18.4485 13.727 18.3948C13.6897 18.3412 13.6189 18.314 13.5147 18.3132H9.83268C9.66702 18.3132 9.52857 18.3692 9.41735 18.4812C9.30535 18.5932 9.24935 18.732 9.24935 18.8977C9.24935 19.0633 9.30535 19.2018 9.41735 19.313C9.52935 19.4242 9.66779 19.4798 9.83268 19.4798" fill="#004EA0"/>
<path d="M9.83268 19.481H12.5102C12.7101 19.32 12.9166 19.168 13.1297 19.0248C13.3428 18.8817 13.5606 18.7592 13.783 18.6573V18.5827C13.783 18.5111 13.7643 18.4485 13.727 18.3948C13.6897 18.3412 13.6189 18.314 13.5147 18.3132H9.83268C9.66702 18.3132 9.52857 18.3692 9.41735 18.4812C9.30535 18.5932 9.24935 18.732 9.24935 18.8977C9.24935 19.0633 9.30535 19.2018 9.41735 19.313C9.52935 19.4242 9.66779 19.4798 9.83268 19.4798M20.3327 18.7402C19.5852 18.7402 18.9498 18.4785 18.4263 17.955C17.9021 17.4316 17.64 16.7957 17.64 16.0475C17.64 15.2993 17.9021 14.6635 18.4263 14.14C18.9506 13.6166 19.586 13.3552 20.3327 13.356C21.0793 13.3568 21.7152 13.6185 22.2402 14.1412C22.7636 14.6654 23.0253 15.3012 23.0253 16.0487C23.0253 16.7961 22.7632 17.432 22.239 17.9562C21.7148 18.4804 21.0793 18.741 20.3327 18.7402ZM20.3327 17.5747C20.7527 17.5747 21.112 17.4253 21.4107 17.1267C21.7093 16.828 21.8587 16.4687 21.8587 16.0487C21.8587 15.6287 21.7093 15.2693 21.4107 14.9707C21.112 14.672 20.7527 14.5227 20.3327 14.5227C19.9127 14.5227 19.5533 14.672 19.2547 14.9707C18.956 15.2693 18.8067 15.6287 18.8067 16.0487C18.8067 16.4687 18.956 16.828 19.2547 17.1267C19.5533 17.4253 19.9127 17.5747 20.3327 17.5747ZM15.0827 25.6282C14.8159 25.6282 14.5923 25.538 14.4118 25.3575C14.2314 25.1771 14.1408 24.9535 14.14 24.6867V23.0533C14.14 22.7858 14.2038 22.5342 14.3313 22.2985C14.4589 22.0636 14.6378 21.8762 14.868 21.7362C15.4 21.4111 15.8612 21.1832 16.2517 21.0525C16.6421 20.9218 17.1461 20.8036 17.7637 20.6978C17.9643 20.6628 18.1588 20.6671 18.347 20.7107C18.536 20.7535 18.6931 20.853 18.8183 21.0093L20.3327 22.9577L21.8178 21.0082C21.9438 20.8433 22.101 20.7414 22.2892 20.7025C22.4774 20.6636 22.6738 20.6617 22.8783 20.6967C23.5076 20.8025 24.012 20.9199 24.3915 21.049C24.7718 21.1789 25.2385 21.4076 25.7915 21.735C26.0217 21.8742 26.1979 22.0601 26.32 22.2927C26.4421 22.5252 26.5106 22.7706 26.5253 23.0288V24.6855C26.5253 24.9523 26.4347 25.1759 26.2535 25.3563C26.0723 25.5368 25.8487 25.627 25.5827 25.627L15.0827 25.6282ZM15.2775 24.4615H20.0095L17.9632 21.7735C17.4887 21.8855 17.0275 22.0306 16.5795 22.2087C16.1323 22.3876 15.6983 22.5945 15.2775 22.8293V24.4615ZM20.6558 24.4615H25.3575V22.8282C24.9422 22.5894 24.5105 22.3856 24.0625 22.2168C23.6145 22.0488 23.1537 21.9088 22.68 21.7968L20.6558 24.4615ZM6.33268 22.666V6.33268V10.598V10.1243V22.666ZM7.06185 23.8327C6.53296 23.8327 6.08457 23.648 5.71668 23.2785C5.34957 22.9106 5.16602 22.4677 5.16602 21.9497V7.05018C5.16602 6.53218 5.35074 6.08885 5.72018 5.72018C6.08963 5.35152 6.53296 5.16679 7.05018 5.16602H21.9485C22.4665 5.16602 22.9098 5.35074 23.2785 5.72018C23.6472 6.08963 23.8319 6.53296 23.8327 7.05018V11.3587C23.6561 11.1938 23.4768 11.0448 23.2948 10.9118C23.1128 10.7788 22.9032 10.6766 22.666 10.605V7.05135C22.666 6.84135 22.5987 6.66907 22.4642 6.53452C22.3296 6.39996 22.1577 6.33268 21.9485 6.33268H7.05018C6.84096 6.33268 6.66907 6.39996 6.53452 6.53452C6.39996 6.66907 6.33268 6.84135 6.33268 7.05135V21.9485C6.33268 22.1577 6.39996 22.3296 6.53452 22.4642C6.66907 22.5987 6.84135 22.666 7.05135 22.666H10.9503C10.9371 22.7306 10.927 22.7951 10.92 22.8597C10.913 22.9235 10.9095 22.9876 10.9095 23.0522V23.8327H7.06185ZM9.83268 10.6843H17.9095C18.1911 10.521 18.4874 10.4016 18.7985 10.3262C19.1096 10.2515 19.4266 10.1994 19.7493 10.1698V10.101C19.7493 9.93535 19.6933 9.7969 19.5813 9.68568C19.4693 9.57446 19.3309 9.51846 19.166 9.51768H9.83268C9.66702 9.51768 9.52857 9.57368 9.41735 9.68568C9.30613 9.79768 9.25013 9.93652 9.24935 10.1022C9.24857 10.2678 9.30457 10.4063 9.41735 10.5175C9.53013 10.6287 9.66857 10.6843 9.83268 10.6843ZM9.83268 15.0827H14.5227C14.5522 14.8688 14.5919 14.6681 14.6417 14.4807C14.6922 14.294 14.7506 14.1058 14.8167 13.916H9.83268C9.66702 13.916 9.52857 13.972 9.41735 14.084C9.30613 14.196 9.25013 14.3348 9.24935 14.5005C9.24857 14.6662 9.30457 14.8046 9.41735 14.9158C9.53013 15.0271 9.66857 15.0827 9.83268 15.0827Z" stroke="#004EA0"/>
</svg>
