<svg width="73" height="73" viewBox="0 0 73 73" fill="none" xmlns="http://www.w3.org/2000/svg">
<path d="M27.155 37.424H45.845C46.271 37.424 46.628 37.28 46.916 36.992C47.204 36.704 47.348 36.347 47.348 35.921C47.348 35.495 47.204 35.139 46.916 34.853C46.628 34.567 46.272 34.424 45.848 34.424H27.155C26.729 34.424 26.372 34.568 26.084 34.856C25.798 35.144 25.655 35.5 25.655 35.924C25.655 36.35 25.798 36.707 26.084 36.995C26.37 37.283 26.727 37.426 27.155 37.424ZM27.155 45.731H45.845C46.271 45.731 46.628 45.587 46.916 45.299C47.204 45.011 47.348 44.654 47.348 44.228C47.348 43.802 47.204 43.446 46.916 43.16C46.628 42.874 46.272 42.731 45.848 42.731H27.155C26.729 42.731 26.372 42.875 26.084 43.163C25.798 43.451 25.655 43.808 25.655 44.234C25.655 44.66 25.798 45.016 26.084 45.302C26.37 45.588 26.727 45.731 27.155 45.731ZM27.155 54.041H36.845C37.271 54.041 37.628 53.896 37.916 53.606C38.204 53.316 38.348 52.96 38.348 52.538C38.348 52.116 38.204 51.76 37.916 51.47C37.628 51.18 37.272 51.036 36.848 51.038H27.155C26.729 51.038 26.372 51.182 26.084 51.47C25.798 51.758 25.655 52.115 25.655 52.541C25.655 52.967 25.798 53.323 26.084 53.609C26.37 53.895 26.727 54.041 27.155 54.041ZM20.345 63.5C18.965 63.5 17.813 63.038 16.889 62.114C15.965 61.19 15.502 60.037 15.5 58.655V14.345C15.5 12.965 15.963 11.813 16.889 10.889C17.815 9.965 18.968 9.502 20.348 9.5H41.987C42.649 9.5 43.281 9.63 43.883 9.89C44.485 10.15 45.003 10.499 45.437 10.937L56.06 21.56C56.494 21.996 56.842 22.514 57.104 23.114C57.366 23.714 57.497 24.346 57.497 25.01V58.652C57.497 60.032 57.034 61.185 56.108 62.111C55.182 63.037 54.031 63.5 52.655 63.5H20.345ZM54.5 24.5H46.136C45.126 24.5 44.267 24.147 43.559 23.441C42.853 22.733 42.5 21.875 42.5 20.867V12.5H20.348C19.886 12.5 19.462 12.692 19.076 13.076C18.69 13.46 18.498 13.883 18.5 14.345V58.655C18.5 59.115 18.692 59.538 19.076 59.924C19.46 60.31 19.883 60.502 20.345 60.5H52.655C53.115 60.5 53.538 60.308 53.924 59.924C54.31 59.54 54.502 59.116 54.5 58.652V24.5Z" fill="black"/>
</svg>
