<svg width="19" height="24" viewBox="0 0 19 24" fill="none" xmlns="http://www.w3.org/2000/svg">
<path d="M10.5391 0.378906H2.39138C1.14138 0.378906 0.118652 1.40163 0.118652 2.65163V20.8335C0.118652 22.0835 1.14138 23.1062 2.39138 23.1062H16.0277C17.2777 23.1062 18.3005 22.0835 18.3005 20.8335V8.14027C18.3005 7.538 18.0618 6.95845 17.63 6.538L12.1414 1.04936C11.7209 0.617543 11.1414 0.378906 10.5391 0.378906ZM13.755 15.1516C13.755 17.8107 11.4709 19.9357 8.76638 19.6744C6.40274 19.4471 4.66411 17.3335 4.66411 14.9585V9.06073C4.66411 7.57209 5.73229 6.21982 7.20956 6.07209C8.91411 5.90163 10.3459 7.23118 10.3459 8.90163V14.0153C10.3459 14.6403 9.83456 15.1516 9.20956 15.1516C8.58456 15.1516 8.0732 14.6403 8.0732 14.0153V8.90163C8.0732 8.58345 7.8232 8.33345 7.50502 8.33345C7.18683 8.33345 6.93683 8.58345 6.93683 8.90163V15.0266C6.93683 16.163 7.70956 17.2085 8.8232 17.3903C10.255 17.6289 11.4823 16.5266 11.4823 15.1516V11.7425C11.4823 11.1175 11.9937 10.6062 12.6187 10.6062C13.2437 10.6062 13.755 11.1175 13.755 11.7425V15.1516ZM11.4823 6.06073V2.65163L16.0277 7.19709H12.6187C11.9937 7.19709 11.4823 6.68573 11.4823 6.06073Z" fill="#6B7280"/>
</svg>
