<svg width="20" height="21" viewBox="0 0 20 21" fill="none" xmlns="http://www.w3.org/2000/svg">
<path d="M11.7573 2.33557C11.2679 2.23078 10.834 2.62554 10.834 3.12608C10.834 3.55357 11.1549 3.90821 11.5708 4.00703C14.8334 4.78227 17.0531 7.90057 16.634 11.3081C16.2821 14.0929 14.2444 16.351 11.5656 16.9795C11.1531 17.0763 10.834 17.4273 10.834 17.8511C10.834 18.3456 11.2628 18.7355 11.7466 18.633C15.8512 17.7636 18.7196 13.9395 18.2923 9.66641C17.9471 6.02256 15.2574 3.08489 11.7573 2.33557ZM9.16732 3.1479C9.16732 2.64875 8.73548 2.25472 8.24706 2.35766C7.26198 2.56527 6.32101 2.94921 5.47381 3.49957C5.0534 3.77267 5.02294 4.35742 5.37129 4.71796C5.68059 5.03807 6.18009 5.06409 6.5578 4.82858C7.1407 4.46514 7.77815 4.19392 8.44623 4.02448C8.85483 3.92085 9.16732 3.56943 9.16732 3.1479ZM4.21039 5.88447C3.8568 5.53089 3.27181 5.55758 2.99958 5.97702C2.45061 6.8229 2.06131 7.76242 1.85112 8.7487C1.74735 9.23561 2.14026 9.66641 2.63811 9.66641C3.06037 9.66641 3.41185 9.3521 3.51284 8.94209C3.6787 8.26872 3.94721 7.624 4.31174 7.03278C4.53695 6.66753 4.5138 6.18789 4.21039 5.88447ZM2.64637 11.3331C2.14928 11.3331 1.75773 11.7643 1.86261 12.2502C2.07533 13.2357 2.464 14.1727 3.00886 15.0178C3.28001 15.4384 3.86603 15.4655 4.21863 15.1105C4.51791 14.8091 4.54092 14.3348 4.31828 13.9731C3.95345 13.3804 3.68365 12.7341 3.51876 12.0579C3.41883 11.6481 3.0682 11.3331 2.64637 11.3331ZM6.50744 16.2199C6.15626 16.002 5.69588 16.0202 5.39746 16.3061C5.03926 16.6493 5.05803 17.2311 5.47214 17.5042C6.31831 18.0623 7.25936 18.4614 8.24876 18.6818C8.73427 18.7899 9.16732 18.3991 9.16732 17.9017C9.16732 17.4812 8.85332 17.1317 8.44477 17.0322C7.76018 16.8655 7.10623 16.5913 6.50744 16.2199ZM9.79232 6.33307C10.1375 6.33307 10.4173 6.6129 10.4173 6.95807V10.1386C10.4173 10.4916 10.6034 10.8185 10.907 10.9986L13.6461 12.6238C13.933 12.794 14.0254 13.1657 13.8518 13.4505C13.6805 13.7314 13.3147 13.8215 13.0325 13.6522L9.65282 11.6244C9.35162 11.4437 9.16732 11.1181 9.16732 10.7669V6.95807C9.16732 6.6129 9.44714 6.33307 9.79232 6.33307Z" fill="white"/>
</svg>
