<svg width="32" height="33" viewBox="0 0 32 33" fill="none" xmlns="http://www.w3.org/2000/svg">
<path d="M28.3329 16.9154C28.3349 18.5347 28.0174 20.1384 27.3985 21.6348C26.7796 23.1311 25.8715 24.4906 24.7262 25.6354C23.5804 26.7815 22.2199 27.6905 20.7225 28.3105C19.2251 28.9305 17.6202 29.2493 15.9995 29.2487C14.2553 29.2525 12.5302 28.8844 10.9395 28.1687L5.78354 28.9314C5.52754 28.9732 5.26521 28.9518 5.01933 28.8692C4.77344 28.7866 4.55145 28.6452 4.37262 28.4573C4.19379 28.2694 4.06354 28.0407 3.99318 27.7911C3.92282 27.5414 3.91448 27.2783 3.96888 27.0247L4.68488 21.794C4.0038 20.2583 3.65659 18.5954 3.66621 16.9154C3.66414 15.2961 3.98166 13.6923 4.60056 12.1959C5.21946 10.6996 6.12758 9.3401 7.27288 8.19537C8.41873 7.04926 9.77923 6.14022 11.2766 5.52022C12.774 4.90022 14.3789 4.58141 15.9995 4.58203C19.2724 4.58225 22.4112 5.88191 24.7262 8.19537C25.8709 9.34053 26.7787 10.7001 27.3975 12.1964C28.0164 13.6926 28.3342 15.2962 28.3329 16.9154Z" stroke="#3B95F6" stroke-width="2" stroke-linecap="round" stroke-linejoin="round"/>
<path d="M16.0004 17.7283C16.2163 17.7283 16.4234 17.6426 16.576 17.4899C16.7287 17.3373 16.8144 17.1302 16.8144 16.9143C16.8144 16.6985 16.7287 16.4914 16.576 16.3388C16.4234 16.1861 16.2163 16.1003 16.0004 16.1003C15.7845 16.1003 15.5775 16.1861 15.4248 16.3388C15.2722 16.4914 15.1864 16.6985 15.1864 16.9143C15.1864 17.1302 15.2722 17.3373 15.4248 17.4899C15.5775 17.6426 15.7845 17.7283 16.0004 17.7283ZM21.7058 17.7283C21.9216 17.7283 22.1287 17.6426 22.2813 17.4899C22.434 17.3373 22.5198 17.1302 22.5198 16.9143C22.5198 16.6985 22.434 16.4914 22.2813 16.3388C22.1287 16.1861 21.9216 16.1003 21.7058 16.1003C21.4899 16.1003 21.2828 16.1861 21.1302 16.3388C20.9775 16.4914 20.8918 16.6985 20.8918 16.9143C20.8918 17.1302 20.9775 17.3373 21.1302 17.4899C21.2828 17.6426 21.4899 17.7283 21.7058 17.7283ZM10.2951 17.7283C10.402 17.7284 10.5079 17.7075 10.6066 17.6666C10.7054 17.6258 10.7952 17.5659 10.8709 17.4904C10.9465 17.4149 11.0066 17.3252 11.0475 17.2265C11.0885 17.1277 11.1097 17.0219 11.1098 16.915C11.1098 16.8081 11.0889 16.7022 11.048 16.6035C11.0072 16.5047 10.9473 16.4149 10.8718 16.3392C10.7963 16.2636 10.7066 16.2035 10.6079 16.1626C10.5092 16.1216 10.4033 16.1004 10.2964 16.1003C10.0805 16.1003 9.87349 16.1861 9.72084 16.3388C9.56818 16.4914 9.48242 16.6985 9.48242 16.9143C9.48242 17.1302 9.56818 17.3373 9.72084 17.4899C9.87349 17.6426 10.0792 17.7283 10.2951 17.7283Z" stroke="#3B95F6" stroke-width="2" stroke-linecap="round" stroke-linejoin="round"/>
</svg>
