<svg width="24" height="24" viewBox="0 0 24 24" fill="none" xmlns="http://www.w3.org/2000/svg">
<g id="mdi:list-status">
<path id="Vector" d="M17.2071 10.2929C16.8166 10.6834 16.1834 10.6834 15.7929 10.2929L13.7 8.2C13.3134 7.8134 13.3134 7.1866 13.7 6.8C14.0866 6.4134 14.7134 6.4134 15.1 6.8L15.7929 7.49289C16.1834 7.88342 16.8166 7.88342 17.2071 7.49289L20 4.7C20.3866 4.3134 21.0134 4.3134 21.4 4.7C21.7866 5.0866 21.7866 5.7134 21.4 6.1L17.2071 10.2929ZM11 8C11 7.44772 10.5523 7 10 7H3C2.44772 7 2 7.44772 2 8C2 8.55228 2.44772 9 3 9H10C10.5523 9 11 8.55228 11 8ZM20.3 14.1C20.6866 13.7134 20.6866 13.0866 20.3 12.7C19.9134 12.3134 19.2866 12.3134 18.9 12.7L17.7071 13.8929C17.3166 14.2834 16.6834 14.2834 16.2929 13.8929L15.1 12.7C14.7134 12.3134 14.0866 12.3134 13.7 12.7C13.3134 13.0866 13.3134 13.7134 13.7 14.1L14.8929 15.2929C15.2834 15.6834 15.2834 16.3166 14.8929 16.7071L13.7 17.9C13.3134 18.2866 13.3134 18.9134 13.7 19.3C14.0866 19.6866 14.7134 19.6866 15.1 19.3L16.2929 18.1071C16.6834 17.7166 17.3166 17.7166 17.7071 18.1071L18.9 19.3C19.2866 19.6866 19.9134 19.6866 20.3 19.3C20.6866 18.9134 20.6866 18.2866 20.3 17.9L19.1071 16.7071C18.7166 16.3166 18.7166 15.6834 19.1071 15.2929L20.3 14.1ZM11 16C11 15.4477 10.5523 15 10 15H3C2.44772 15 2 15.4477 2 16C2 16.5523 2.44772 17 3 17H10C10.5523 17 11 16.5523 11 16Z" fill="#6B7280"/>
</g>
</svg>
