<svg width="20" height="21" viewBox="0 0 20 21" fill="none" xmlns="http://www.w3.org/2000/svg">
<path d="M10.0001 3C10.2211 3 10.4331 3.0878 10.5894 3.24408C10.7457 3.40036 10.8335 3.61232 10.8335 3.83333V9.05667L15.3568 6.445C15.5481 6.33624 15.7746 6.30755 15.987 6.36521C16.1994 6.42287 16.3803 6.56218 16.4904 6.75275C16.6004 6.94333 16.6306 7.16969 16.5743 7.38243C16.5181 7.59518 16.38 7.77704 16.1901 7.88833L11.6668 10.5L16.1901 13.1117C16.2857 13.166 16.3695 13.2387 16.4368 13.3255C16.5042 13.4124 16.5537 13.5117 16.5825 13.6178C16.6113 13.7238 16.6188 13.8345 16.6046 13.9435C16.5905 14.0525 16.5549 14.1576 16.4999 14.2528C16.445 14.3479 16.3717 14.4313 16.2844 14.4981C16.1971 14.5648 16.0975 14.6137 15.9912 14.6417C15.885 14.6698 15.7742 14.6766 15.6654 14.6617C15.5565 14.6469 15.4516 14.6106 15.3568 14.555L10.8335 11.9433V17.1667C10.8335 17.3877 10.7457 17.5996 10.5894 17.7559C10.4331 17.9122 10.2211 18 10.0001 18C9.77911 18 9.56715 17.9122 9.41087 17.7559C9.25459 17.5996 9.16679 17.3877 9.16679 17.1667V11.9433L4.64346 14.555C4.54865 14.6106 4.44378 14.6469 4.3349 14.6617C4.22601 14.6766 4.11525 14.6698 4.009 14.6417C3.90275 14.6137 3.80311 14.5648 3.71581 14.4981C3.62851 14.4313 3.55527 14.3479 3.50032 14.2528C3.44537 14.1576 3.40979 14.0525 3.39562 13.9435C3.38146 13.8345 3.38899 13.7238 3.41778 13.6178C3.44658 13.5117 3.49607 13.4124 3.5634 13.3255C3.63074 13.2387 3.71459 13.166 3.81013 13.1117L8.33346 10.5L3.81013 7.88833C3.62029 7.77704 3.48217 7.59518 3.42593 7.38243C3.36968 7.16969 3.39987 6.94333 3.5099 6.75275C3.61993 6.56218 3.80087 6.42287 4.01324 6.36521C4.22561 6.30755 4.45216 6.33624 4.64346 6.445L9.16679 9.05667V3.83333C9.16679 3.61232 9.25459 3.40036 9.41087 3.24408C9.56715 3.0878 9.77911 3 10.0001 3Z" fill="white"/>
</svg>
