<svg width="25" height="24" viewBox="0 0 25 24" fill="none" xmlns="http://www.w3.org/2000/svg">
<g id="ph:files-duotone">
<g id="Group">
<path id="Vector" opacity="0.2" d="M19.834 6.75V17.25C19.834 17.4489 19.755 17.6397 19.6143 17.7803C19.4737 17.921 19.2829 18 19.084 18H16.834V9.75L13.084 6H7.83398V3.75C7.83398 3.55109 7.913 3.36032 8.05365 3.21967C8.19431 3.07902 8.38507 3 8.58398 3H16.084L19.834 6.75Z" fill="#6B7280"/>
<path id="Vector_2" d="M20.3646 6.21938L16.6146 2.46938C16.5449 2.39975 16.4622 2.34454 16.3711 2.3069C16.2801 2.26926 16.1825 2.24992 16.084 2.25H8.58398C8.18616 2.25 7.80463 2.40804 7.52332 2.68934C7.24202 2.97064 7.08398 3.35218 7.08398 3.75V4.25C7.08398 4.80228 6.63627 5.25 6.08398 5.25H5.58398C5.18616 5.25 4.80463 5.40804 4.52332 5.68934C4.24202 5.97064 4.08398 6.35218 4.08398 6.75V20.25C4.08398 20.6478 4.24202 21.0294 4.52332 21.3107C4.80463 21.592 5.18616 21.75 5.58398 21.75H16.084C16.4818 21.75 16.8633 21.592 17.1446 21.3107C17.4259 21.0294 17.584 20.6478 17.584 20.25V19.75C17.584 19.1977 18.0317 18.75 18.584 18.75H19.084C19.4818 18.75 19.8633 18.592 20.1446 18.3107C20.4259 18.0294 20.584 17.6478 20.584 17.25V6.75C20.5841 6.65148 20.5647 6.55391 20.5271 6.46286C20.4894 6.37182 20.4342 6.28908 20.3646 6.21938ZM16.084 19.25C16.084 19.8023 15.6363 20.25 15.084 20.25H6.58398C6.0317 20.25 5.58398 19.8023 5.58398 19.25V7.75C5.58398 7.19772 6.0317 6.75 6.58398 6.75H12.3595C12.6247 6.75 12.879 6.85536 13.0666 7.04289L15.7911 9.76742C15.9786 9.95496 16.084 10.2093 16.084 10.4745V19.25ZM19.084 16.5C19.084 16.9142 18.7482 17.25 18.334 17.25C17.9198 17.25 17.584 16.9142 17.584 16.5V9.75C17.5841 9.65148 17.5647 9.55391 17.5271 9.46286C17.4894 9.37182 17.4342 9.28908 17.3646 9.21937L13.6146 5.46938C13.5449 5.39975 13.4622 5.34454 13.3711 5.3069C13.2801 5.26926 13.1825 5.24992 13.084 5.25H9.33398C8.91977 5.25 8.58398 4.91421 8.58398 4.5C8.58398 4.08579 8.91977 3.75 9.33398 3.75H15.3595C15.6247 3.75 15.879 3.85536 16.0666 4.04289L18.7911 6.76742C18.9786 6.95496 19.084 7.20931 19.084 7.47453V16.5ZM13.834 14.25C13.834 14.4489 13.755 14.6397 13.6143 14.7803C13.4737 14.921 13.2829 15 13.084 15H8.58398C8.38507 15 8.19431 14.921 8.05365 14.7803C7.913 14.6397 7.83398 14.4489 7.83398 14.25C7.83398 14.0511 7.913 13.8603 8.05365 13.7197C8.19431 13.579 8.38507 13.5 8.58398 13.5H13.084C13.2829 13.5 13.4737 13.579 13.6143 13.7197C13.755 13.8603 13.834 14.0511 13.834 14.25ZM13.834 17.25C13.834 17.4489 13.755 17.6397 13.6143 17.7803C13.4737 17.921 13.2829 18 13.084 18H8.58398C8.38507 18 8.19431 17.921 8.05365 17.7803C7.913 17.6397 7.83398 17.4489 7.83398 17.25C7.83398 17.0511 7.913 16.8603 8.05365 16.7197C8.19431 16.579 8.38507 16.5 8.58398 16.5H13.084C13.2829 16.5 13.4737 16.579 13.6143 16.7197C13.755 16.8603 13.834 17.0511 13.834 17.25Z" fill="#6B7280"/>
</g>
</g>
</svg>
