<svg width="24" height="25" viewBox="0 0 24 25" fill="none" xmlns="http://www.w3.org/2000/svg">
<path d="M2.99902 21.5H6.74902L17.809 10.44L14.059 6.69L2.99902 17.75V21.5ZM4.99902 18.58L14.059 9.52L14.979 10.44L5.91902 19.5H4.99902V18.58ZM18.369 3.79C18.2765 3.6973 18.1666 3.62375 18.0457 3.57357C17.9247 3.52339 17.795 3.49756 17.664 3.49756C17.5331 3.49756 17.4034 3.52339 17.2824 3.57357C17.1614 3.62375 17.0515 3.6973 16.959 3.79L15.129 5.62L18.879 9.37L20.709 7.54C20.8017 7.44749 20.8753 7.3376 20.9255 7.21663C20.9756 7.09565 21.0015 6.96597 21.0015 6.835C21.0015 6.70403 20.9756 6.57435 20.9255 6.45338C20.8753 6.33241 20.8017 6.22252 20.709 6.13L18.369 3.79Z" fill="url(#paint0_linear_7810_2458)"/>
<defs>
<linearGradient id="paint0_linear_7810_2458" x1="2.57612" y1="17.3476" x2="21.8294" y2="14.6156" gradientUnits="userSpaceOnUse">
<stop stop-color="#002572"/>
<stop offset="1" stop-color="#007BFF"/>
</linearGradient>
</defs>
</svg>
