<svg width="32" height="32" viewBox="0 0 32 32" fill="none" xmlns="http://www.w3.org/2000/svg">
<path d="M25.6114 17.1807L27.3498 18.7288C27.6708 18.9967 27.8853 19.3706 27.9544 19.783C28.0236 20.1954 27.9428 20.6188 27.7267 20.9768L25.6306 24.5574C25.468 24.8315 25.2358 25.0578 24.9576 25.2132C24.6761 25.3689 24.36 25.4516 24.0384 25.4536C23.8388 25.4548 23.6403 25.4249 23.4499 25.3651L21.225 24.6305C20.8353 24.8805 20.4301 25.1042 20.0096 25.3016L19.5424 27.5573C19.4559 27.9723 19.2248 28.343 18.8904 28.6035C18.5518 28.8686 18.132 29.0085 17.702 28.9996H13.3618C12.9318 29.0085 12.512 28.8686 12.1734 28.6035C11.8397 28.3427 11.6093 27.972 11.5234 27.5573L11.0542 25.3016C10.6392 25.1016 10.2365 24.8768 9.84843 24.6286L7.61581 25.3651C7.42544 25.4249 7.22692 25.4548 7.02737 25.4536C6.70634 25.4513 6.39099 25.3686 6.11009 25.2132C5.83209 25.0583 5.59992 24.8327 5.43703 24.5594L3.26595 20.9768C3.04024 20.6156 2.954 20.1845 3.02338 19.7643C3.09277 19.3441 3.31302 18.9636 3.64286 18.6942L5.37934 16.5V15.8193L3.64094 14.2712C3.31991 14.0033 3.10542 13.6294 3.03628 13.217C2.96714 12.8046 3.04793 12.3812 3.26402 12.0232L5.43511 8.44257C5.59773 8.16847 5.82993 7.94224 6.10816 7.78682C6.38907 7.63138 6.70441 7.54874 7.02544 7.54644C7.22319 7.53397 7.42168 7.55213 7.61389 7.60028L9.80228 8.36949C10.1933 8.1195 10.5984 7.89579 11.0176 7.69836L11.4868 5.44266C11.5728 5.028 11.8031 4.65729 12.1368 4.39654C12.4754 4.13145 12.8953 3.9915 13.3252 4.0004H17.6289C18.0589 3.9915 18.4787 4.13145 18.8174 4.39654C19.1539 4.65999 19.3847 5.03114 19.4674 5.44266L19.9366 7.69836C20.3532 7.89707 20.7551 8.12142 21.1423 8.37141L23.3768 7.63682C23.6248 7.55615 23.8869 7.52782 24.1464 7.55364C24.4059 7.57946 24.6572 7.65886 24.8845 7.78682C25.1633 7.9445 25.3941 8.17142 25.5575 8.44064L27.7267 12.0232C27.9554 12.3813 28.0461 12.8104 27.9817 13.2305C27.9173 13.6505 27.7022 14.0327 27.3767 14.3058L25.6114 15.8096V17.1807Z" stroke="url(#paint0_linear_8299_441)" stroke-width="2"/>
<path d="M20.3077 16.4994C20.3077 17.7745 19.8012 18.9973 18.8996 19.8989C17.998 20.8005 16.7752 21.307 15.5002 21.307C14.2251 21.307 13.0023 20.8005 12.1007 19.8989C11.1991 18.9973 10.6926 17.7745 10.6926 16.4994C10.6926 15.2244 11.1991 14.0016 12.1007 13.1C13.0023 12.1984 14.2251 11.6919 15.5002 11.6919C16.7752 11.6919 17.998 12.1984 18.8996 13.1C19.8012 14.0016 20.3077 15.2244 20.3077 16.4994Z" stroke="url(#paint1_linear_8299_441)" stroke-width="2"/>
<defs>
<linearGradient id="paint0_linear_8299_441" x1="2.41267" y1="23.2336" x2="29.1517" y2="19.4391" gradientUnits="userSpaceOnUse">
<stop stop-color="#002572"/>
<stop offset="1" stop-color="#007BFF"/>
</linearGradient>
<linearGradient id="paint1_linear_8299_441" x1="10.4668" y1="19.0892" x2="20.7499" y2="17.63" gradientUnits="userSpaceOnUse">
<stop stop-color="#002572"/>
<stop offset="1" stop-color="#007BFF"/>
</linearGradient>
</defs>
</svg>
