<svg width="20" height="13" viewBox="0 0 20 13" fill="none" xmlns="http://www.w3.org/2000/svg">
<path d="M4.28994 9.10201L3.99994 9.40201V1.81201C3.99994 1.5468 3.89458 1.29244 3.70705 1.10491C3.51951 0.917369 3.26516 0.812012 2.99994 0.812012C2.73472 0.812012 2.48037 0.917369 2.29283 1.10491C2.1053 1.29244 1.99994 1.5468 1.99994 1.81201V9.40201L1.70994 9.10201C1.52164 8.91371 1.26624 8.80792 0.999941 8.80792C0.73364 8.80792 0.478245 8.91371 0.289941 9.10201C0.101637 9.29032 -0.00415039 9.54571 -0.00415039 9.81201C-0.00415039 10.0783 0.101637 10.3337 0.289941 10.522L2.28994 12.522C2.38505 12.6131 2.49719 12.6844 2.61994 12.732C2.73964 12.7849 2.86907 12.8122 2.99994 12.8122C3.13081 12.8122 3.26024 12.7849 3.37994 12.732C3.50269 12.6844 3.61484 12.6131 3.70994 12.522L5.70994 10.522C5.80318 10.4288 5.87714 10.3181 5.9276 10.1963C5.97806 10.0744 6.00403 9.94387 6.00403 9.81201C6.00403 9.68015 5.97806 9.54958 5.9276 9.42776C5.87714 9.30594 5.80318 9.19525 5.70994 9.10201C5.6167 9.00877 5.50601 8.93481 5.38419 8.88435C5.26237 8.83389 5.1318 8.80792 4.99994 8.80792C4.86808 8.80792 4.73751 8.83389 4.61569 8.88435C4.49387 8.93481 4.38318 9.00877 4.28994 9.10201ZM8.99994 2.81201H18.9999C19.2652 2.81201 19.5195 2.70665 19.707 2.51912C19.8946 2.33158 19.9999 2.07723 19.9999 1.81201C19.9999 1.5468 19.8946 1.29244 19.707 1.10491C19.5195 0.917369 19.2652 0.812012 18.9999 0.812012H8.99994C8.73472 0.812012 8.48037 0.917369 8.29283 1.10491C8.1053 1.29244 7.99994 1.5468 7.99994 1.81201C7.99994 2.07723 8.1053 2.33158 8.29283 2.51912C8.48037 2.70665 8.73472 2.81201 8.99994 2.81201ZM18.9999 5.81201H8.99994C8.73472 5.81201 8.48037 5.91737 8.29283 6.10491C8.1053 6.29244 7.99994 6.5468 7.99994 6.81201C7.99994 7.07723 8.1053 7.33158 8.29283 7.51912C8.48037 7.70665 8.73472 7.81201 8.99994 7.81201H18.9999C19.2652 7.81201 19.5195 7.70665 19.707 7.51912C19.8946 7.33158 19.9999 7.07723 19.9999 6.81201C19.9999 6.5468 19.8946 6.29244 19.707 6.10491C19.5195 5.91737 19.2652 5.81201 18.9999 5.81201ZM18.9999 10.812H8.99994C8.73472 10.812 8.48037 10.9174 8.29283 11.1049C8.1053 11.2924 7.99994 11.5468 7.99994 11.812C7.99994 12.0772 8.1053 12.3316 8.29283 12.5191C8.48037 12.7067 8.73472 12.812 8.99994 12.812H18.9999C19.2652 12.812 19.5195 12.7067 19.707 12.5191C19.8946 12.3316 19.9999 12.0772 19.9999 11.812C19.9999 11.5468 19.8946 11.2924 19.707 11.1049C19.5195 10.9174 19.2652 10.812 18.9999 10.812Z" fill="#636E72"/>
</svg>
