<svg width="24" height="24" viewBox="0 0 24 24" fill="none" xmlns="http://www.w3.org/2000/svg">
<g id="stash:user-group">
<path id="Vector" d="M16.75 6H15.25V5.25C15.25 5.05109 15.171 4.86032 15.0303 4.71967C14.8897 4.57902 14.6989 4.5 14.5 4.5C14.3011 4.5 14.1103 4.57902 13.9697 4.71967C13.829 4.86032 13.75 5.05109 13.75 5.25V6H9.25V5.25C9.25 5.05109 9.17098 4.86032 9.03033 4.71967C8.88968 4.57902 8.69891 4.5 8.5 4.5C8.30109 4.5 8.11032 4.57902 7.96967 4.71967C7.82902 4.86032 7.75 5.05109 7.75 5.25V6H6.25C5.65326 6 5.08097 6.23705 4.65901 6.65901C4.23705 7.08097 4 7.65326 4 8.25V17.25C4 17.8467 4.23705 18.419 4.65901 18.841C5.08097 19.2629 5.65326 19.5 6.25 19.5H16.75C17.3467 19.5 17.919 19.2629 18.341 18.841C18.7629 18.419 19 17.8467 19 17.25V8.25C19 7.65326 18.7629 7.08097 18.341 6.65901C17.919 6.23705 17.3467 6 16.75 6ZM17.5 17.25C17.5 17.4489 17.421 17.6397 17.2803 17.7803C17.1397 17.921 16.9489 18 16.75 18H6.25C6.05109 18 5.86032 17.921 5.71967 17.7803C5.57902 17.6397 5.5 17.4489 5.5 17.25V12H17.5V17.25ZM17.5 10.5H5.5V8.25C5.5 8.05109 5.57902 7.86032 5.71967 7.71967C5.86032 7.57902 6.05109 7.5 6.25 7.5H7.75V8.25C7.75 8.44891 7.82902 8.63968 7.96967 8.78033C8.11032 8.92098 8.30109 9 8.5 9C8.69891 9 8.88968 8.92098 9.03033 8.78033C9.17098 8.63968 9.25 8.44891 9.25 8.25V7.5H13.75V8.25C13.75 8.44891 13.829 8.63968 13.9697 8.78033C14.1103 8.92098 14.3011 9 14.5 9C14.6989 9 14.8897 8.92098 15.0303 8.78033C15.171 8.63968 15.25 8.44891 15.25 8.25V7.5H16.75C16.9489 7.5 17.1397 7.57902 17.2803 7.71967C17.421 7.86032 17.5 8.05109 17.5 8.25V10.5Z" fill="#768396"/>
</g>
</svg>
