<svg width="24" height="24" viewBox="0 0 24 24" fill="none" xmlns="http://www.w3.org/2000/svg">
<g id="stash:user-group">
<path id="Vector" d="M8.41773 11.0996C8.23998 11.0996 8.06622 11.1524 7.91842 11.2513C7.77063 11.3502 7.65543 11.4908 7.58741 11.6552C7.51939 11.8196 7.50159 12.0006 7.53627 12.1752C7.57095 12.3498 7.65654 12.5101 7.78223 12.636C7.90792 12.7618 8.06806 12.8475 8.2424 12.8823C8.41674 12.917 8.59744 12.8992 8.76166 12.8311C8.92589 12.7629 9.06625 12.6476 9.165 12.4996C9.26376 12.3516 9.31647 12.1776 9.31647 11.9996C9.31647 11.7609 9.22178 11.532 9.05323 11.3632C8.88469 11.1945 8.65609 11.0996 8.41773 11.0996ZM12.0127 11.0996C11.8349 11.0996 11.6612 11.1524 11.5134 11.2513C11.3656 11.3502 11.2504 11.4908 11.1823 11.6552C11.1143 11.8196 11.0965 12.0006 11.1312 12.1752C11.1659 12.3498 11.2515 12.5101 11.3772 12.636C11.5029 12.7618 11.663 12.8475 11.8373 12.8823C12.0117 12.917 12.1924 12.8992 12.3566 12.8311C12.5208 12.7629 12.6612 12.6476 12.7599 12.4996C12.8587 12.3516 12.9114 12.1776 12.9114 11.9996C12.9114 11.7609 12.8167 11.532 12.6482 11.3632C12.4796 11.1945 12.251 11.0996 12.0127 11.0996ZM15.6076 11.0996C15.4298 11.0996 15.2561 11.1524 15.1083 11.2513C14.9605 11.3502 14.8453 11.4908 14.7773 11.6552C14.7093 11.8196 14.6915 12.0006 14.7261 12.1752C14.7608 12.3498 14.8464 12.5101 14.9721 12.636C15.0978 12.7618 15.2579 12.8475 15.4323 12.8823C15.6066 12.917 15.7873 12.8992 15.9515 12.8311C16.1158 12.7629 16.2561 12.6476 16.3549 12.4996C16.4536 12.3516 16.5063 12.1776 16.5063 11.9996C16.5063 11.7609 16.4116 11.532 16.2431 11.3632C16.0746 11.1945 15.846 11.0996 15.6076 11.0996ZM12.0127 3C10.8324 3 9.66376 3.23278 8.57336 3.68505C7.48297 4.13733 6.49221 4.80023 5.65766 5.63592C3.97221 7.32368 3.02533 9.61276 3.02533 11.9996C3.01748 14.0777 3.73604 16.0931 5.05647 17.6963L3.259 19.4963C3.1343 19.6228 3.04982 19.7835 3.01623 19.9581C2.98264 20.1327 3.00144 20.3133 3.07027 20.4772C3.14492 20.6392 3.26593 20.7752 3.41794 20.8682C3.56995 20.9611 3.74612 21.0067 3.92407 20.9992H12.0127C14.3963 20.9992 16.6822 20.051 18.3677 18.3633C20.0531 16.6755 21 14.3864 21 11.9996C21 9.61276 20.0531 7.32368 18.3677 5.63592C16.6822 3.94817 14.3963 3 12.0127 3ZM12.0127 19.1993H6.09001L6.92583 18.3623C7.09323 18.1937 7.18718 17.9656 7.18718 17.7278C7.18718 17.4901 7.09323 17.262 6.92583 17.0934C5.74902 15.9163 5.01618 14.367 4.85218 12.7095C4.68818 11.052 5.10315 9.38882 6.02641 8.00335C6.94966 6.61787 8.32408 5.59581 9.91549 5.11128C11.5069 4.62676 13.2168 4.70975 14.754 5.34612C16.2912 5.98249 17.5604 7.13286 18.3455 8.60125C19.1307 10.0696 19.3831 11.7652 19.0597 13.399C18.7364 15.0329 17.8574 16.5039 16.5724 17.5616C15.2874 18.6192 13.676 19.198 12.0127 19.1993Z" fill="#6B7280"/>
</g>
</svg>
