<svg width="24" height="24" viewBox="0 0 24 24" fill="none" xmlns="http://www.w3.org/2000/svg">
<g id="stash:user-group">
<path id="Vector" d="M9.99973 3.25C7.90373 3.25 6.17073 4.91 6.17073 7C6.17073 9.09 7.90373 10.75 9.99973 10.75C11.6497 10.75 13.0747 9.721 13.6067 8.264C13.8596 8.80332 14.2871 9.24143 14.8202 9.50729C15.3532 9.77314 15.9604 9.85116 16.5433 9.72868C17.1262 9.60621 17.6506 9.29042 18.0316 8.83253C18.4125 8.37464 18.6277 7.8015 18.6421 7.20603C18.6565 6.61056 18.4693 6.02769 18.1109 5.55193C17.7525 5.07617 17.2439 4.73541 16.6676 4.58491C16.0913 4.43442 15.4811 4.483 14.9358 4.7228C14.3906 4.96259 13.9423 5.37952 13.6637 5.906C13.1837 4.36 11.7137 3.25 9.99973 3.25ZM7.67073 7C7.67073 5.776 8.69473 4.75 9.99973 4.75C11.3047 4.75 12.3287 5.776 12.3287 7C12.3287 8.224 11.3047 9.25 9.99973 9.25C8.69473 9.25 7.67073 8.224 7.67073 7ZM14.3567 7.143C14.3567 6.70725 14.5298 6.28935 14.838 5.98122C15.1461 5.6731 15.564 5.5 15.9997 5.5C16.4355 5.5 16.8534 5.6731 17.1615 5.98122C17.4696 6.28935 17.6427 6.70725 17.6427 7.143C17.6427 7.57875 17.4696 7.99665 17.1615 8.30478C16.8534 8.6129 16.4355 8.786 15.9997 8.786C15.564 8.786 15.1461 8.6129 14.838 8.30478C14.5298 7.99665 14.3567 7.57875 14.3567 7.143ZM8.28473 11.707C7.88173 11.446 7.30073 11.245 6.68873 11.413C6.5254 11.4583 6.36273 11.5067 6.20073 11.558L5.21673 11.874C3.98373 12.268 3.02873 13.247 2.70673 14.487L2.69573 14.527L2.27573 17.479C2.10873 18.659 2.76073 19.88 4.05573 20.18C5.25273 20.458 7.18173 20.75 9.99973 20.75C12.8177 20.75 14.7457 20.458 15.9447 20.18C17.2377 19.88 17.8907 18.66 17.7237 17.479L17.3037 14.528L17.2937 14.487C16.9707 13.247 16.0157 12.268 14.7827 11.874L13.7987 11.558C13.6367 11.5067 13.4741 11.4583 13.3107 11.413C12.6987 11.245 12.1177 11.446 11.7147 11.707C11.3447 11.947 10.7407 12.236 9.99973 12.236C9.25973 12.236 8.65473 11.947 8.28473 11.707ZM7.08673 12.858C7.15073 12.841 7.28873 12.848 7.47073 12.965C7.98273 13.297 8.87073 13.735 9.99973 13.735C11.1287 13.735 12.0167 13.297 12.5297 12.965C12.7097 12.848 12.8487 12.841 12.9127 12.858C13.0561 12.898 13.1987 12.9407 13.3407 12.986L14.3257 13.301C15.0757 13.541 15.6337 14.121 15.8317 14.825L16.2377 17.689C16.3127 18.216 16.0317 18.619 15.6047 18.719C14.5277 18.969 12.7137 19.249 9.99973 19.249C7.28573 19.249 5.47173 18.969 4.39473 18.719C3.96773 18.619 3.68673 18.216 3.76073 17.689L4.16773 14.825C4.27308 14.4662 4.46581 14.1392 4.72865 13.8732C4.99149 13.6072 5.31622 13.4106 5.67373 13.301L6.65873 12.986C6.80073 12.9407 6.9434 12.898 7.08673 12.858Z" fill="#6B7280"/>
<path id="Vector_2" d="M18.183 10.2978C18.0254 10.2585 17.8608 10.2563 17.7022 10.2913C17.5436 10.3264 17.3953 10.3978 17.269 10.4998C16.999 10.7098 16.521 10.9998 16 10.9998C15.8674 10.9998 15.7402 11.0525 15.6464 11.1463C15.5527 11.24 15.5 11.3672 15.5 11.4998C15.5 11.6324 15.5527 11.7596 15.6464 11.8534C15.7402 11.9471 15.8674 11.9998 16 11.9998C16.858 11.9998 17.556 11.5428 17.883 11.2898C17.8951 11.2784 17.9099 11.2701 17.926 11.2658H17.93C18.064 11.3012 18.197 11.3405 18.329 11.3838L19.014 11.6088C19.54 11.7818 19.939 12.2028 20.08 12.7228L20.363 14.7718C20.419 15.1748 20.207 15.4768 19.903 15.5488C19.6797 15.6035 19.4087 15.6568 19.09 15.7088C19.0251 15.7193 18.963 15.7425 18.907 15.777C18.8511 15.8116 18.8026 15.8568 18.7641 15.9101C18.7257 15.9634 18.6981 16.0237 18.683 16.0877C18.6679 16.1516 18.6655 16.218 18.676 16.2828C18.6865 16.3477 18.7097 16.4099 18.7442 16.4658C18.7788 16.5217 18.824 16.5703 18.8773 16.6087C18.9306 16.6472 18.9909 16.6747 19.0549 16.6898C19.1188 16.705 19.1851 16.7073 19.25 16.6968C19.5913 16.6402 19.886 16.5818 20.134 16.5218C21.029 16.3088 21.467 15.4518 21.354 14.6348L21.063 12.5288L21.056 12.5018C20.9465 12.0736 20.7304 11.6801 20.428 11.3579C20.1255 11.0357 19.7464 10.7952 19.326 10.6588L18.641 10.4338C18.4897 10.3839 18.337 10.3386 18.183 10.2978Z" fill="#6B7280"/>
</g>
</svg>
