<svg width="32" height="32" viewBox="0 0 32 32" fill="none" xmlns="http://www.w3.org/2000/svg">
<path d="M8.61538 16.0006V11.1454C8.6298 10.1911 8.8324 9.24895 9.21158 8.37302C9.59075 7.49709 10.139 6.70459 10.825 6.04092C11.511 5.37725 12.3213 4.85546 13.2093 4.50544C14.0973 4.15542 15.0456 3.98406 16 4.00117C16.9544 3.98406 17.9027 4.15542 18.7907 4.50544C19.6787 4.85546 20.489 5.37725 21.175 6.04092C21.861 6.70459 22.4092 7.49709 22.7884 8.37302C23.1676 9.24895 23.3702 10.1911 23.3846 11.1454V16.0006M19.6923 25.6924C20.6716 25.6924 21.6107 25.3034 22.3032 24.611C22.9956 23.9186 23.3846 22.9795 23.3846 22.0003V17.8466M19.6923 25.6924C19.6923 26.3044 19.4492 26.8914 19.0164 27.3241C18.5836 27.7569 17.9967 28 17.3846 28H14.6154C14.0033 28 13.4164 27.7569 12.9836 27.3241C12.5508 26.8914 12.3077 26.3044 12.3077 25.6924C12.3077 25.0804 12.5508 24.4935 12.9836 24.0607C13.4164 23.628 14.0033 23.3848 14.6154 23.3848H17.3846C17.9967 23.3848 18.5836 23.628 19.0164 24.0607C19.4492 24.4935 19.6923 25.0804 19.6923 25.6924ZM5.84615 13.2315H7.69231C7.93712 13.2315 8.17191 13.3287 8.34502 13.5018C8.51813 13.6749 8.61538 13.9097 8.61538 14.1545V19.6927C8.61538 19.9375 8.51813 20.1723 8.34502 20.3454C8.17191 20.5185 7.93712 20.6157 7.69231 20.6157H5.84615C5.35652 20.6157 4.88695 20.4212 4.54073 20.075C4.1945 19.7288 4 19.2593 4 18.7697V15.0776C4 14.5879 4.1945 14.1184 4.54073 13.7722C4.88695 13.426 5.35652 13.2315 5.84615 13.2315ZM26.1538 20.6157H24.3077C24.0629 20.6157 23.8281 20.5185 23.655 20.3454C23.4819 20.1723 23.3846 19.9375 23.3846 19.6927V14.1545C23.3846 13.9097 23.4819 13.6749 23.655 13.5018C23.8281 13.3287 24.0629 13.2315 24.3077 13.2315H26.1538C26.6435 13.2315 27.1131 13.426 27.4593 13.7722C27.8055 14.1184 28 14.5879 28 15.0776V18.7697C28 19.2593 27.8055 19.7288 27.4593 20.075C27.1131 20.4212 26.6435 20.6157 26.1538 20.6157Z" stroke="url(#paint0_linear_8299_450)" stroke-width="1.8" stroke-linecap="round" stroke-linejoin="round"/>
<defs>
<linearGradient id="paint0_linear_8299_450" x1="3.43621" y1="22.4643" x2="29.1038" y2="18.8221" gradientUnits="userSpaceOnUse">
<stop stop-color="#002572"/>
<stop offset="1" stop-color="#007BFF"/>
</linearGradient>
</defs>
</svg>
