<svg width="32" height="33" viewBox="0 0 32 33" fill="none" xmlns="http://www.w3.org/2000/svg">
<path d="M13.334 28.618C12.1738 28.3536 11.0594 27.9182 10.0273 27.326M18.6673 5.21265C21.3182 5.81808 23.685 7.30557 25.3802 9.43159C27.0754 11.5576 27.9986 14.1962 27.9986 16.9153C27.9986 19.6344 27.0754 22.273 25.3802 24.399C23.685 26.5251 21.3182 28.0126 18.6673 28.618M6.10602 23.706C5.37947 22.6488 4.82713 21.482 4.47002 20.25M4.16602 14.9153C4.37935 13.6486 4.79002 12.4486 5.36602 11.3486L5.59135 10.942M9.21002 7.02065C10.4583 6.16315 11.8576 5.54969 13.334 5.21265" stroke="#3B95F6" stroke-width="2" stroke-linecap="round" stroke-linejoin="round"/>
</svg>
