<svg width="20" height="21" viewBox="0 0 20 21" fill="none" xmlns="http://www.w3.org/2000/svg">
<path d="M8.33333 17.8141C7.60822 17.6489 6.91171 17.3768 6.26667 17.0066M11.6667 3.18579C13.3235 3.56418 14.8027 4.49387 15.8622 5.82263C16.9217 7.15139 17.4987 8.8005 17.4987 10.5C17.4987 12.1994 16.9217 13.8485 15.8622 15.1773C14.8027 16.506 13.3235 17.4357 11.6667 17.8141M3.81583 14.7441C3.36174 14.0834 3.01653 13.3541 2.79333 12.5841M2.60333 9.24996C2.73667 8.45829 2.99333 7.70829 3.35333 7.02079L3.49417 6.76662M5.75583 4.31579C6.536 3.77986 7.41056 3.39644 8.33333 3.18579" stroke="#4B5563" stroke-width="2" stroke-linecap="round" stroke-linejoin="round"/>
<path d="M7.5 10.4999L9.16667 12.1666L12.5 8.83325" stroke="#4B5563" stroke-width="2" stroke-linecap="round" stroke-linejoin="round"/>
</svg>
