<svg width="32" height="33" viewBox="0 0 32 33" fill="none" xmlns="http://www.w3.org/2000/svg">
<path d="M12.0007 6.24854H15.5864C15.8517 6.24854 16.106 6.35389 16.2935 6.54143L18.3744 8.62231C18.562 8.80984 18.8163 8.9152 19.0815 8.9152H25.334C26.0412 8.9152 26.7195 9.19615 27.2196 9.69625C27.7197 10.1963 28.0006 10.8746 28.0006 11.5819V20.9152C28.0006 21.6224 27.7197 22.3007 27.2196 22.8008C26.7195 23.3009 26.0412 23.5819 25.334 23.5819H12.0007C11.2934 23.5819 10.6151 23.3009 10.115 22.8008C9.61494 22.3007 9.33398 21.6224 9.33398 20.9152V8.9152C9.33398 8.20796 9.61494 7.52968 10.115 7.02958C10.6151 6.52949 11.2934 6.24854 12.0007 6.24854Z" stroke="#3B95F6" stroke-width="2" stroke-linecap="round" stroke-linejoin="round"/>
<path d="M22.6667 23.5818V26.2485C22.6667 26.9557 22.3857 27.634 21.8856 28.1341C21.3855 28.6342 20.7072 28.9151 20 28.9151H6.66667C5.95942 28.9151 5.28115 28.6342 4.78105 28.1341C4.28095 27.634 4 26.9557 4 26.2485V14.2485C4 13.5412 4.28095 12.8629 4.78105 12.3628C5.28115 11.8627 5.95942 11.5818 6.66667 11.5818H9.33333" stroke="#3B95F6" stroke-width="2" stroke-linecap="round" stroke-linejoin="round"/>
</svg>
