<svg width="25" height="25" viewBox="0 0 25 25" fill="none" xmlns="http://www.w3.org/2000/svg">
<path d="M12.0696 2.74316C17.5926 2.74316 22.0696 7.22016 22.0696 12.7432C22.0696 18.2662 17.5926 22.7432 12.0696 22.7432C10.4518 22.7453 8.85787 22.3533 7.42559 21.6012L3.13559 22.7182C2.99225 22.7555 2.84163 22.7547 2.69868 22.7159C2.55573 22.6771 2.4254 22.6016 2.3206 22.4969C2.21581 22.3922 2.1402 22.262 2.10126 22.1191C2.06231 21.9762 2.06139 21.8255 2.09859 21.6822L3.21459 17.3932C2.46039 15.9594 2.06736 14.3632 2.06959 12.7432C2.06959 7.22016 6.54659 2.74316 12.0696 2.74316ZM13.3216 13.7432H8.81959L8.71759 13.7502C8.53808 13.7749 8.37358 13.8637 8.2545 14.0003C8.13542 14.1369 8.06982 14.312 8.06982 14.4932C8.06982 14.6744 8.13542 14.8494 8.2545 14.986C8.37358 15.1226 8.53808 15.2115 8.71759 15.2362L8.81959 15.2432H13.3216L13.4226 15.2362C13.6021 15.2115 13.7666 15.1226 13.8857 14.986C14.0048 14.8494 14.0704 14.6744 14.0704 14.4932C14.0704 14.312 14.0048 14.1369 13.8857 14.0003C13.7666 13.8637 13.6021 13.7749 13.4226 13.7502L13.3216 13.7432ZM15.3196 10.2432H8.81959L8.71759 10.2502C8.53808 10.2749 8.37358 10.3637 8.2545 10.5003C8.13542 10.6369 8.06982 10.812 8.06982 10.9932C8.06982 11.1744 8.13542 11.3494 8.2545 11.486C8.37358 11.6226 8.53808 11.7115 8.71759 11.7362L8.81959 11.7432H15.3196L15.4216 11.7362C15.6011 11.7115 15.7656 11.6226 15.8847 11.486C16.0038 11.3494 16.0694 11.1744 16.0694 10.9932C16.0694 10.812 16.0038 10.6369 15.8847 10.5003C15.7656 10.3637 15.6011 10.2749 15.4216 10.2502L15.3196 10.2432Z" fill="#6B7280"/>
</svg>
