<svg width="24" height="24" viewBox="0 0 24 24" fill="none" xmlns="http://www.w3.org/2000/svg">
<path d="M1.33411 2.66683C1.33411 2.31321 1.47458 1.97407 1.72463 1.72402C1.97468 1.47397 2.31382 1.3335 2.66744 1.3335H21.3341C21.6877 1.3335 22.0269 1.47397 22.2769 1.72402C22.527 1.97407 22.6674 2.31321 22.6674 2.66683V5.3335C22.6674 5.68712 22.527 6.02626 22.2769 6.2763C22.0269 6.52635 21.6877 6.66683 21.3341 6.66683H2.66744C2.31382 6.66683 1.97468 6.52635 1.72463 6.2763C1.47458 6.02626 1.33411 5.68712 1.33411 5.3335V2.66683ZM1.33411 13.3335C1.33411 12.9799 1.47458 12.6407 1.72463 12.3907C1.97468 12.1406 2.31382 12.0002 2.66744 12.0002H10.6674C11.0211 12.0002 11.3602 12.1406 11.6102 12.3907C11.8603 12.6407 12.0008 12.9799 12.0008 13.3335V21.3335C12.0008 21.6871 11.8603 22.0263 11.6102 22.2763C11.3602 22.5264 11.0211 22.6668 10.6674 22.6668H2.66744C2.31382 22.6668 1.97468 22.5264 1.72463 22.2763C1.47458 22.0263 1.33411 21.6871 1.33411 21.3335V13.3335ZM17.3341 13.3335C17.3341 12.9799 17.4746 12.6407 17.7246 12.3907C17.9747 12.1406 18.3138 12.0002 18.6674 12.0002H21.3341C21.6877 12.0002 22.0269 12.1406 22.2769 12.3907C22.527 12.6407 22.6674 12.9799 22.6674 13.3335V21.3335C22.6674 21.6871 22.527 22.0263 22.2769 22.2763C22.0269 22.5264 21.6877 22.6668 21.3341 22.6668H18.6674C18.3138 22.6668 17.9747 22.5264 17.7246 22.2763C17.4746 22.0263 17.3341 21.6871 17.3341 21.3335V13.3335Z" stroke="url(#paint0_linear_8299_398)" stroke-width="2" stroke-linecap="round" stroke-linejoin="round"/>
<defs>
<linearGradient id="paint0_linear_8299_398" x1="0.832955" y1="17.7462" x2="23.6486" y2="14.5087" gradientUnits="userSpaceOnUse">
<stop stop-color="#002572"/>
<stop offset="1" stop-color="#007BFF"/>
</linearGradient>
</defs>
</svg>
