<svg width="24" height="24" viewBox="0 0 24 24" fill="none" xmlns="http://www.w3.org/2000/svg">
<path d="M3.42857 0C2.51926 0 1.64719 0.361223 1.00421 1.00421C0.361223 1.64719 5.1551e-09 2.51926 5.1551e-09 3.42857V5.14286C5.1551e-09 6.16629 0.449143 7.08686 1.16057 7.71429C0.795788 8.03605 0.503643 8.43175 0.303545 8.8751C0.103446 9.31845 -2.66669e-05 9.7993 5.1551e-09 10.2857V13.7143C5.1551e-09 14.7377 0.449143 15.6566 1.16057 16.2857C0.795788 16.6075 0.503643 17.0032 0.303545 17.4465C0.103446 17.8899 -2.66669e-05 18.3707 5.1551e-09 18.8571V20.5714C5.1551e-09 21.4807 0.361223 22.3528 1.00421 22.9958C1.64719 23.6388 2.51926 24 3.42857 24H20.5714C21.4807 24 22.3528 23.6388 22.9958 22.9958C23.6388 22.3528 24 21.4807 24 20.5714V18.8571C24 17.8337 23.5509 16.9149 22.8394 16.2857C23.5509 15.6566 24 14.7377 24 13.7143V10.2857C24 9.26229 23.5509 8.34171 22.8394 7.71429C23.5509 7.08686 24 6.16629 24 5.14286V3.42857C24 2.51926 23.6388 1.64719 22.9958 1.00421C22.3528 0.361223 21.4807 0 20.5714 0H3.42857ZM1.71429 18.8571C1.71429 18.4025 1.8949 17.9665 2.21639 17.645C2.53788 17.3235 2.97391 17.1429 3.42857 17.1429H6.85714V22.2857H3.42857C2.97391 22.2857 2.53788 22.1051 2.21639 21.7836C1.8949 21.4621 1.71429 21.0261 1.71429 20.5714V18.8571ZM8.57143 22.2857V17.1429H20.5714C21.0261 17.1429 21.4621 17.3235 21.7836 17.645C22.1051 17.9665 22.2857 18.4025 22.2857 18.8571V20.5714C22.2857 21.0261 22.1051 21.4621 21.7836 21.7836C21.4621 22.1051 21.0261 22.2857 20.5714 22.2857H8.57143ZM8.57143 15.4286V8.57143H20.5714C21.0261 8.57143 21.4621 8.75204 21.7836 9.07353C22.1051 9.39502 22.2857 9.83106 22.2857 10.2857V13.7143C22.2857 14.1689 22.1051 14.605 21.7836 14.9265C21.4621 15.248 21.0261 15.4286 20.5714 15.4286H8.57143ZM6.85714 8.57143V15.4286H3.42857C2.97391 15.4286 2.53788 15.248 2.21639 14.9265C1.8949 14.605 1.71429 14.1689 1.71429 13.7143V10.2857C1.71429 9.83106 1.8949 9.39502 2.21639 9.07353C2.53788 8.75204 2.97391 8.57143 3.42857 8.57143H6.85714ZM6.85714 6.85714H3.42857C2.97391 6.85714 2.53788 6.67653 2.21639 6.35504C1.8949 6.03355 1.71429 5.59751 1.71429 5.14286V3.42857C1.71429 2.97391 1.8949 2.53788 2.21639 2.21639C2.53788 1.8949 2.97391 1.71429 3.42857 1.71429H6.85714V6.85714ZM8.57143 6.85714V1.71429H20.5714C21.0261 1.71429 21.4621 1.8949 21.7836 2.21639C22.1051 2.53788 22.2857 2.97391 22.2857 3.42857V5.14286C22.2857 5.59751 22.1051 6.03355 21.7836 6.35504C21.4621 6.67653 21.0261 6.85714 20.5714 6.85714H8.57143Z" fill="url(#paint0_linear_8299_412)"/>
<defs>
<linearGradient id="paint0_linear_8299_412" x1="-0.563795" y1="18.4643" x2="25.1038" y2="14.8221" gradientUnits="userSpaceOnUse">
<stop stop-color="#002572"/>
<stop offset="1" stop-color="#007BFF"/>
</linearGradient>
</defs>
</svg>
